<svg width="134" height="46" viewBox="0 0 134 46" fill="none" xmlns="http://www.w3.org/2000/svg">
<g filter="url(#filter0_d_60_4)">
<path d="M18.16 22.8C18.16 21.1147 18.5227 19.6107 19.248 18.288C19.9947 16.9653 21.008 15.92 22.288 15.152C23.568 14.384 25.0187 14 26.64 14C28.2827 14 29.7333 14.384 30.992 15.152C32.272 15.92 33.2747 16.9653 34 18.288C34.7467 19.6107 35.12 21.1147 35.12 22.8C35.12 24.4853 34.7467 25.9893 34 27.312C33.2747 28.6347 32.272 29.68 30.992 30.448C29.7333 31.216 28.2827 31.6 26.64 31.6C25.0187 31.6 23.568 31.216 22.288 30.448C21.008 29.68 19.9947 28.6347 19.248 27.312C18.5227 25.9893 18.16 24.4853 18.16 22.8ZM15.28 22.8C15.28 24.4213 15.5573 25.936 16.112 27.344C16.688 28.752 17.488 29.9787 18.512 31.024C19.536 32.048 20.7413 32.8587 22.128 33.456C23.5147 34.032 25.0187 34.32 26.64 34.32C28.2827 34.32 29.7867 34.032 31.152 33.456C32.5387 32.8587 33.744 32.048 34.768 31.024C35.792 29.9787 36.5813 28.752 37.136 27.344C37.712 25.936 38 24.4213 38 22.8C38 21.1573 37.712 19.6427 37.136 18.256C36.5813 16.848 35.792 15.632 34.768 14.608C33.744 13.5627 32.5387 12.752 31.152 12.176C29.7867 11.5787 28.2827 11.28 26.64 11.28C25.0187 11.28 23.5147 11.5787 22.128 12.176C20.7413 12.752 19.536 13.5627 18.512 14.608C17.488 15.632 16.688 16.848 16.112 18.256C15.5573 19.6427 15.28 21.1573 15.28 22.8ZM41.8413 11.6V34H53.3613V31.44H44.5613V11.6H41.8413ZM56.2475 11.6V34H58.9675V11.6H56.2475ZM72.0913 28.944L64.7313 11.6H61.6913L72.0913 35.12L82.4913 11.6H79.4513L72.0913 28.944ZM86.7203 34H98.0163V31.44H86.7203V34ZM86.7203 14.16H98.0163V11.6H86.7203V14.16ZM86.7203 23.12H97.3763V20.56H86.7203V23.12ZM85.2163 11.6V34H87.9363V11.6H85.2163ZM106.81 22.96L114.49 34H117.85L109.85 22.96H106.81ZM102.81 11.6V34H105.53V11.6H102.81ZM104.314 14H108.89C109.85 14 110.693 14.1707 111.418 14.512C112.165 14.8533 112.741 15.344 113.146 15.984C113.573 16.624 113.786 17.4027 113.786 18.32C113.786 19.2373 113.573 20.016 113.146 20.656C112.741 21.296 112.165 21.7867 111.418 22.128C110.693 22.4693 109.85 22.64 108.89 22.64H104.314V25.04H108.89C110.341 25.04 111.631 24.7733 112.762 24.24C113.914 23.6853 114.821 22.9067 115.482 21.904C116.165 20.88 116.506 19.6853 116.506 18.32C116.506 16.9333 116.165 15.7387 115.482 14.736C114.821 13.7333 113.914 12.9653 112.762 12.432C111.631 11.8773 110.341 11.6 108.89 11.6H104.314V14Z" fill="#1612D9"/>
</g>
<defs>
<filter id="filter0_d_60_4" x="15.28" y="11.28" width="103.57" height="24.84" filterUnits="userSpaceOnUse" color-interpolation-filters="sRGB">
<feFlood flood-opacity="0" result="BackgroundImageFix"/>
<feColorMatrix in="SourceAlpha" type="matrix" values="0 0 0 0 0 0 0 0 0 0 0 0 0 0 0 0 0 0 127 0" result="hardAlpha"/>
<feOffset dx="1" dy="1"/>
<feComposite in2="hardAlpha" operator="out"/>
<feColorMatrix type="matrix" values="0 0 0 0 0 0 0 0 0 0 0 0 0 0 0 0 0 0 0.5 0"/>
<feBlend mode="normal" in2="BackgroundImageFix" result="effect1_dropShadow_60_4"/>
<feBlend mode="normal" in="SourceGraphic" in2="effect1_dropShadow_60_4" result="shape"/>
</filter>
</defs>
</svg>
